REM DIRINDEX 1\2\5,1\2\6,1\2\7,1\2\8,1\3\9,1\3\10,1\3\11,1\4\12,1\4\13,1\4\14,1\4\15,1\4\16
REM DIRNAME cjc034,folder01,folder02,folder03,folder04,folder05,folder06,folder07,folder08,folder09,folder10,folder11,folder12,folder13,folder14,folder15
TITLE ""
FILE "1200_2_sec03_1010_1027.mp3" MP3
  TRACK 01 AUDIO
    TITLE "0:"
    INDEX 01 00:00:00
  TRACK 02 AUDIO
    TITLE "10:cjc034_02082"
    INDEX 01 00:00:07
  TRACK 03 AUDIO
    TITLE "0:"
    INDEX 01 00:00:70
  TRACK 04 AUDIO
    TITLE "9:cjc034_02083"
    INDEX 01 00:00:74
  TRACK 05 AUDIO
    TITLE "0:"
    INDEX 01 00:02:12
  TRACK 06 AUDIO
    TITLE "10:cjc034_02084"
    INDEX 01 00:02:69
  TRACK 07 AUDIO
    TITLE "0:"
    INDEX 01 00:04:11
  TRACK 08 AUDIO
    TITLE "9:cjc034_02085"
    INDEX 01 00:04:13
  TRACK 09 AUDIO
    TITLE "0:"
    INDEX 01 00:05:26
  TRACK 10 AUDIO
    TITLE "10:cjc034_02086"
    INDEX 01 00:06:10
  TRACK 11 AUDIO
    TITLE "0:"
    INDEX 01 00:06:73
  TRACK 12 AUDIO
    TITLE "9:cjc034_02087"
    INDEX 01 00:07:00
  TRACK 13 AUDIO
    TITLE "0:"
    INDEX 01 00:08:13
  TRACK 14 AUDIO
    TITLE "10:cjc034_02088"
    INDEX 01 00:08:72
  TRACK 15 AUDIO
    TITLE "0:"
    INDEX 01 00:11:19
  TRACK 16 AUDIO
    TITLE "9:cjc034_02089"
    INDEX 01 00:11:23
  TRACK 17 AUDIO
    TITLE "0:"
    INDEX 01 00:12:22
  TRACK 18 AUDIO
    TITLE "11:cjc034_02090"
    INDEX 01 00:13:73
  TRACK 19 AUDIO
    TITLE "0:"
    INDEX 01 00:19:58
  TRACK 20 AUDIO
    TITLE "10:cjc034_02091"
    INDEX 01 00:20:63
  TRACK 21 AUDIO
    TITLE "0:"
    INDEX 01 00:22:07
  TRACK 22 AUDIO
    TITLE "9:cjc034_02092"
    INDEX 01 00:22:09
  TRACK 23 AUDIO
    TITLE "0:"
    INDEX 01 00:23:40
  TRACK 24 AUDIO
    TITLE "10:cjc034_02093"
    INDEX 01 00:24:24
  TRACK 25 AUDIO
    TITLE "0:"
    INDEX 01 00:25:29
  TRACK 26 AUDIO
    TITLE "9:cjc034_02094"
    INDEX 01 00:25:31
  TRACK 27 AUDIO
    TITLE "0:"
    INDEX 01 00:26:58
  TRACK 28 AUDIO
    TITLE "10:cjc034_02095"
    INDEX 01 00:27:43
  TRACK 29 AUDIO
    TITLE "0:"
    INDEX 01 00:29:05
  TRACK 30 AUDIO
    TITLE "9:cjc034_02096"
    INDEX 01 00:29:07
  TRACK 31 AUDIO
    TITLE "0:"
    INDEX 01 00:30:30
  TRACK 32 AUDIO
    TITLE "10:cjc034_02097"
    INDEX 01 00:31:12
  TRACK 33 AUDIO
    TITLE "0:"
    INDEX 01 00:32:27
  TRACK 34 AUDIO
    TITLE "9:cjc034_02098"
    INDEX 01 00:32:31
  TRACK 35 AUDIO
    TITLE "0:"
    INDEX 01 00:33:50
  TRACK 36 AUDIO
    TITLE "10:cjc034_02099"
    INDEX 01 00:34:34
  TRACK 37 AUDIO
    TITLE "0:"
    INDEX 01 00:35:25
  TRACK 38 AUDIO
    TITLE "9:cjc034_02100"
    INDEX 01 00:35:29
  TRACK 39 AUDIO
    TITLE "0:"
    INDEX 01 00:36:64
  TRACK 40 AUDIO
    TITLE "10:cjc034_02101"
    INDEX 01 00:37:50
  TRACK 41 AUDIO
    TITLE "0:"
    INDEX 01 00:38:57
  TRACK 42 AUDIO
    TITLE "9:cjc034_02102"
    INDEX 01 00:38:63
  TRACK 43 AUDIO
    TITLE "0:"
    INDEX 01 00:40:13
  TRACK 44 AUDIO
    TITLE "10:cjc034_02103"
    INDEX 01 00:40:70
  TRACK 45 AUDIO
    TITLE "0:"
    INDEX 01 00:42:10
  TRACK 46 AUDIO
    TITLE "9:cjc034_02104"
    INDEX 01 00:42:14
  TRACK 47 AUDIO
    TITLE "0:"
    INDEX 01 00:43:44
  TRACK 48 AUDIO
    TITLE "10:cjc034_02105"
    INDEX 01 00:44:22
  TRACK 49 AUDIO
    TITLE "0:"
    INDEX 01 00:45:45
  TRACK 50 AUDIO
    TITLE "9:cjc034_02106"
    INDEX 01 00:45:47
  TRACK 51 AUDIO
    TITLE "0:"
    INDEX 01 00:47:19
  TRACK 52 AUDIO
    TITLE "10:cjc034_02107"
    INDEX 01 00:48:04
  TRACK 53 AUDIO
    TITLE "0:"
    INDEX 01 00:49:43
  TRACK 54 AUDIO
    TITLE "9:cjc034_02108"
    INDEX 01 00:49:47
  TRACK 55 AUDIO
    TITLE "0:"
    INDEX 01 00:51:07
  TRACK 56 AUDIO
    TITLE "10:cjc034_02109"
    INDEX 01 00:51:63
  TRACK 57 AUDIO
    TITLE "0:"
    INDEX 01 00:52:67
  TRACK 58 AUDIO
    TITLE "9:cjc034_02110"
    INDEX 01 00:53:00
  TRACK 59 AUDIO
    TITLE "0:"
    INDEX 01 00:54:21
  TRACK 60 AUDIO
    TITLE "10:cjc034_02111"
    INDEX 01 00:55:03
  TRACK 61 AUDIO
    TITLE "0:"
    INDEX 01 00:55:73
  TRACK 62 AUDIO
    TITLE "9:cjc034_02112"
    INDEX 01 00:56:04
  TRACK 63 AUDIO
    TITLE "0:"
    INDEX 01 00:57:25
  TRACK 64 AUDIO
    TITLE "11:cjc034_02113"
    INDEX 01 00:59:00
  TRACK 65 AUDIO
    TITLE "0:"
    INDEX 01 01:03:67
  TRACK 66 AUDIO
    TITLE "10:cjc034_02114"
    INDEX 01 01:04:70
  TRACK 67 AUDIO
    TITLE "0:"
    INDEX 01 01:07:33
  TRACK 68 AUDIO
    TITLE "9:cjc034_02115"
    INDEX 01 01:07:37
  TRACK 69 AUDIO
    TITLE "0:"
    INDEX 01 01:08:40
  TRACK 70 AUDIO
    TITLE "10:cjc034_02116"
    INDEX 01 01:09:26
  TRACK 71 AUDIO
    TITLE "0:"
    INDEX 01 01:10:49
  TRACK 72 AUDIO
    TITLE "9:cjc034_02117"
    INDEX 01 01:10:53
  TRACK 73 AUDIO
    TITLE "0:"
    INDEX 01 01:12:11
  TRACK 74 AUDIO
    TITLE "10:cjc034_02118"
    INDEX 01 01:12:70
  TRACK 75 AUDIO
    TITLE "0:"
    INDEX 01 01:13:73
  TRACK 76 AUDIO
    TITLE "9:cjc034_02119"
    INDEX 01 01:14:04
  TRACK 77 AUDIO
    TITLE "0:"
    INDEX 01 01:15:25
